<svg xmlns="http://www.w3.org/2000/svg" viewBox="0 0 50 50"><defs><style>.cls-1{fill:#fff;}.cls-2{fill:#bd5419;}</style></defs><title>Asset 56</title><g id="Layer_2" data-name="Layer 2"><g id="Layer_1-2" data-name="Layer 1"><rect class="cls-1" width="50" height="50"/><path class="cls-2" d="M48.74,17.55a2.52,2.52,0,0,0-2.68,0c-.66.38-1.3.8-2,1.2a31.7,31.7,0,0,1-5,2.62,7.41,7.41,0,0,1-4.11.46,11.06,11.06,0,0,1-3.27-1.19c-1.75-1-3.48-2-5.22-3a2.69,2.69,0,0,0-2.9,0l-.73.45a42.84,42.84,0,0,1-5.68,3.12,8,8,0,0,1-4.2.71A10.67,10.67,0,0,1,9.29,20.6c-1.78-1-3.52-2-5.27-3.05A2.63,2.63,0,1,0,1.28,22c.51.32,1,.6,1.56.91C3.9,23.57,5,24.15,6,24.81a6,6,0,0,1,2.61,3.37,10.46,10.46,0,0,1,.32,3,9.85,9.85,0,0,1-1.62,5.65c-.9,1.4-1.76,2.82-2.62,4.24a2.54,2.54,0,0,0,0,2.84,2.62,2.62,0,0,0,4.44,0c.66-1,1.27-2.12,1.95-3.15a27.29,27.29,0,0,1,1.78-2.48c.62-.73,1.23-.7,1.88,0a9.21,9.21,0,0,1,1.05,1.35c.9,1.41,1.77,2.84,2.66,4.26a2.63,2.63,0,1,0,4.47-2.77q-1.34-2.22-2.71-4.41a9.26,9.26,0,0,1-1.52-5.43c0-.4,0-.81,0-1.22a6,6,0,0,1,2.53-4.91c1.14-.8,2.38-1.46,3.58-2.17a.32.32,0,0,1,.27,0,19.55,19.55,0,0,1,3.65,3,5.82,5.82,0,0,1,1.61,4.68,14.11,14.11,0,0,1-.78,3.2c-.89,2.54-1.8,5.07-2.69,7.61a3.69,3.69,0,0,0-.2.92,2.63,2.63,0,0,0,4.84,1.52l.78-1.14a2.17,2.17,0,0,1,1.92-.94c1.33,0,2.65,0,4,0a2.19,2.19,0,0,1,1.94,1c.28.39.54.79.81,1.19a2.63,2.63,0,0,0,4.66-2.32c-.55-1.61-1.13-3.21-1.68-4.82s-1.17-3.31-1.65-5a5.76,5.76,0,0,1,.36-4.38,8.65,8.65,0,0,1,2-2.46,28.7,28.7,0,0,1,4.11-3A2.54,2.54,0,0,0,50,19.88,2.48,2.48,0,0,0,48.74,17.55Z"/><path class="cls-2" d="M30.18,12.67a6.33,6.33,0,0,0-.12,4.23c.38,0,.72,0,1.06-.11a.45.45,0,0,1,.52.25,5.47,5.47,0,0,0,8.7.56c.23-.27.39-.68.68-.79a2.25,2.25,0,0,1,1,.07c.22,0,.3,0,.35-.25A6.15,6.15,0,0,0,41.21,11a17.77,17.77,0,0,0-1.6-1.54l.43.09a1.36,1.36,0,0,0,1.69-1.08,2.29,2.29,0,0,0,.07-.36,7.07,7.07,0,0,1,.53-2.68c.12-.23,0-.42-.27-.46a4.57,4.57,0,0,0-.52,0,8.82,8.82,0,0,0-4.2,1.06,1.1,1.1,0,0,1-1,.17.42.42,0,0,0-.27,0,1.07,1.07,0,0,1-1-.16l-.92-.43a8.28,8.28,0,0,0-3.55-.63c-.59,0-.69.2-.46.73a4.35,4.35,0,0,1,.39,1.84,2.73,2.73,0,0,0,.06.64,1.45,1.45,0,0,0,2,1.37l.3-.06A6.76,6.76,0,0,0,30.18,12.67Z"/><path class="cls-2" d="M13.83,19.5A5.48,5.48,0,1,0,8.33,14,5.51,5.51,0,0,0,13.83,19.5Z"/></g></g></svg>