<?xml version="1.0" encoding="utf-8"?>
<!-- Generator: Adobe Illustrator 14.0.0, SVG Export Plug-In . SVG Version: 6.00 Build 43363)  -->
<!DOCTYPE svg PUBLIC "-//W3C//DTD SVG 1.1//EN" "http://www.w3.org/Graphics/SVG/1.1/DTD/svg11.dtd">
<svg version="1.1" id="Layer_1" xmlns="http://www.w3.org/2000/svg" xmlns:xlink="http://www.w3.org/1999/xlink" x="0px" y="0px"
	 width="312.25px" height="48.354px" viewBox="0 0 312.25 48.354" enable-background="new 0 0 312.25 48.354" xml:space="preserve">
<g>
	<g>
		<g>
			<path fill="#CB2128" stroke="#FFFFFF" stroke-width="2" d="M23.139,7.417c3.201,5.702,1.17,12.902-4.528,16.093
				c-5.692,3.204-12.898,1.175-16.096-4.523C-0.683,13.296,1.349,6.09,7.041,2.896C12.734-0.305,19.944,1.723,23.139,7.417z"/>
			<path fill="#F79820" stroke="#FFFFFF" stroke-width="2" d="M39.207,16.28c3.334,5.953,1.221,13.489-4.736,16.829
				c-5.952,3.346-13.489,1.229-16.826-4.729c-3.341-5.96-1.224-13.493,4.729-16.836C28.327,8.206,35.864,10.32,39.207,16.28z"/>
			<path fill="#ED2F26" stroke="#FFFFFF" stroke-width="2" d="M23.419,23.287c3.195,5.696,1.164,12.899-4.528,16.099
				c-5.694,3.201-12.903,1.166-16.103-4.525c-3.191-5.689-1.164-12.897,4.529-16.103C13.014,15.563,20.22,17.592,23.419,23.287z"/>
		</g>
	</g>
	<g enable-background="new    ">
		<path fill="#CB2128" d="M62.645,8.917v19.375c0,1.691,0.067,3.518,0.135,4.633h-3.686l-0.203-2.604h-0.068
			c-0.98,1.826-2.976,2.977-5.342,2.977c-3.956,0-7.067-3.35-7.067-8.42c-0.034-5.514,3.415-8.792,7.371-8.792
			c2.266,0,3.889,0.913,4.633,2.13h0.067V8.917H62.645z M58.485,23.321c0-0.338-0.034-0.777-0.102-1.115
			c-0.372-1.589-1.69-2.908-3.584-2.908c-2.671,0-4.159,2.367-4.159,5.411c0,3.043,1.488,5.24,4.125,5.24
			c1.691,0,3.179-1.148,3.584-2.939c0.102-0.373,0.135-0.779,0.135-1.219L58.485,23.321L58.485,23.321z"/>
		<path fill="#CB2128" d="M79.886,28.97c0,1.486,0.068,2.941,0.271,3.955h-3.753L76.1,31.099h-0.102
			c-0.98,1.285-2.705,2.199-4.869,2.199c-3.313,0-5.173-2.402-5.173-4.904c0-4.125,3.686-6.255,9.772-6.222v-0.271
			c0-1.082-0.439-2.875-3.347-2.875c-1.623,0-3.314,0.508-4.43,1.219l-0.812-2.705c1.217-0.744,3.348-1.454,5.951-1.454
			c5.275,0,6.796,3.349,6.796,6.965V28.97L79.886,28.97z M75.829,24.878c-2.942-0.033-5.749,0.574-5.749,3.076
			c0,1.623,1.048,2.367,2.367,2.367c1.69,0,2.874-1.082,3.28-2.266c0.102-0.305,0.102-0.609,0.102-0.914V24.878L75.829,24.878z"/>
		<path fill="#CB2128" d="M86.579,16.458l2.942,8.825c0.338,1.016,0.71,2.268,0.947,3.18h0.101c0.237-0.912,0.541-2.164,0.879-3.213
			l2.57-8.792h4.43l-4.125,11.227c-2.265,6.154-3.787,8.895-5.714,10.584c-1.657,1.42-3.348,1.961-4.362,2.096L83.3,36.882
			c0.71-0.168,1.555-0.541,2.4-1.148c0.812-0.508,1.725-1.488,2.3-2.604c0.169-0.307,0.236-0.541,0.236-0.744
			c0-0.17-0.034-0.406-0.203-0.812L81.98,16.458H86.579z"/>
	</g>
	<g enable-background="new    ">
		<path fill="#CB2128" d="M101.419,20.987c0-1.724-0.034-3.076-0.135-4.428h2.638l0.169,2.704h0.067
			c0.812-1.521,2.705-3.044,5.41-3.044c2.266,0,5.782,1.354,5.782,6.966v9.739h-2.976v-9.437c0-2.636-0.98-4.835-3.787-4.835
			c-1.927,0-3.449,1.388-3.99,3.043c-0.135,0.373-0.203,0.88-0.203,1.388v9.841h-2.976L101.419,20.987L101.419,20.987z"/>
		<path fill="#CB2128" d="M133.877,28.429c0,1.725,0.034,3.211,0.136,4.496h-2.638l-0.169-2.67h-0.068
			c-0.744,1.316-2.502,3.043-5.41,3.043c-2.57,0-5.647-1.455-5.647-7.17v-9.569h2.976v9.028c0,3.111,0.981,5.242,3.652,5.242
			c1.995,0,3.381-1.387,3.922-2.738c0.169-0.406,0.271-0.947,0.271-1.523V16.559h2.976L133.877,28.429L133.877,28.429z"/>
		<path fill="#CB2128" d="M138.811,21.665c0-1.928-0.034-3.584-0.135-5.105h2.604l0.136,3.246h0.101
			c0.744-2.197,2.57-3.585,4.565-3.585c0.304,0,0.541,0.034,0.812,0.067v2.807c-0.304-0.066-0.608-0.066-1.015-0.066
			c-2.096,0-3.584,1.556-3.99,3.787c-0.068,0.406-0.102,0.913-0.102,1.387v8.725h-2.976V21.665z"/>
		<path fill="#CB2128" d="M149.46,29.915c0.913,0.541,2.468,1.15,3.957,1.15c2.13,0,3.146-1.049,3.146-2.436
			c0-1.42-0.847-2.164-3.01-2.977c-2.977-1.083-4.363-2.673-4.363-4.633c0-2.638,2.164-4.802,5.647-4.802
			c1.657,0,3.111,0.438,3.99,1.015l-0.71,2.164c-0.643-0.405-1.826-0.979-3.348-0.979c-1.758,0-2.705,1.015-2.705,2.231
			c0,1.353,0.947,1.96,3.078,2.806c2.807,1.049,4.293,2.47,4.293,4.903c0,2.908-2.266,4.938-6.086,4.938
			c-1.792,0-3.449-0.475-4.599-1.148L149.46,29.915z"/>
		<path fill="#CB2128" d="M164.911,25.282c0.067,4.023,2.604,5.682,5.612,5.682c2.131,0,3.449-0.371,4.531-0.846l0.541,2.131
			c-1.048,0.473-2.873,1.049-5.478,1.049c-5.039,0-8.048-3.35-8.048-8.285c0-4.938,2.906-8.792,7.675-8.792
			c5.377,0,6.764,4.667,6.764,7.677c0,0.607-0.034,1.047-0.102,1.387h-11.496V25.282z M173.635,23.151
			c0.034-1.858-0.777-4.8-4.125-4.8c-3.043,0-4.328,2.738-4.564,4.8H173.635z"/>
		<path fill="#CB2128" d="M180.191,21.665c0-1.928-0.033-3.584-0.135-5.105h2.604l0.136,3.246h0.101
			c0.744-2.197,2.57-3.585,4.565-3.585c0.304,0,0.541,0.034,0.812,0.067v2.807c-0.305-0.066-0.607-0.066-1.015-0.066
			c-2.097,0-3.584,1.556-3.989,3.787c-0.067,0.406-0.102,0.913-0.102,1.387v8.725h-2.977V21.665z"/>
		<path fill="#CB2128" d="M194.695,11.96c0,1.016-0.709,1.826-1.894,1.826c-1.081,0-1.792-0.812-1.792-1.826
			s0.743-1.859,1.859-1.859C193.952,10.101,194.695,10.912,194.695,11.96z M191.383,32.925V16.559h2.975v16.366H191.383z"/>
		<path fill="#CB2128" d="M200.95,25.282c0.067,4.023,2.604,5.682,5.612,5.682c2.131,0,3.449-0.371,4.531-0.846l0.541,2.131
			c-1.048,0.473-2.873,1.049-5.478,1.049c-5.039,0-8.048-3.35-8.048-8.285c0-4.938,2.906-8.792,7.675-8.792
			c5.377,0,6.764,4.667,6.764,7.677c0,0.607-0.034,1.047-0.103,1.387H200.95V25.282z M209.674,23.151
			c0.034-1.858-0.777-4.8-4.125-4.8c-3.043,0-4.328,2.738-4.564,4.8H209.674z"/>
		<path fill="#CB2128" d="M215.825,29.915c0.913,0.541,2.469,1.15,3.956,1.15c2.131,0,3.145-1.049,3.145-2.436
			c0-1.42-0.845-2.164-3.009-2.977c-2.976-1.083-4.362-2.673-4.362-4.633c0-2.638,2.164-4.802,5.646-4.802
			c1.656,0,3.111,0.438,3.99,1.015l-0.711,2.164c-0.643-0.405-1.824-0.979-3.348-0.979c-1.758,0-2.705,1.015-2.705,2.231
			c0,1.353,0.947,1.96,3.077,2.806c2.808,1.049,4.295,2.47,4.295,4.903c0,2.908-2.266,4.938-6.087,4.938
			c-1.792,0-3.449-0.475-4.6-1.148L215.825,29.915z"/>
		<path fill="#CB2128" d="M228.537,31.167c0-1.219,0.846-2.131,2.029-2.131c1.183,0,1.994,0.879,1.994,2.131
			c0,1.217-0.812,2.131-2.062,2.131C229.35,33.298,228.537,32.384,228.537,31.167z"/>
		<path fill="#CB2128" d="M247.911,32.351c-0.777,0.371-2.502,0.947-4.7,0.947c-4.938,0-8.148-3.35-8.148-8.354
			c0-5.04,3.449-8.725,8.791-8.725c1.76,0,3.314,0.439,4.125,0.881l-0.676,2.264c-0.71-0.371-1.826-0.776-3.449-0.776
			c-3.752,0-5.78,2.808-5.78,6.189c0,3.787,2.434,6.119,5.68,6.119c1.69,0,2.808-0.404,3.651-0.775L247.911,32.351z"/>
		<path fill="#CB2128" d="M265.999,24.606c0,6.055-4.228,8.692-8.149,8.692c-4.396,0-7.845-3.246-7.845-8.42
			c0-5.444,3.618-8.658,8.115-8.658C262.82,16.22,265.999,19.635,265.999,24.606z M253.049,24.775c0,3.586,2.028,6.291,4.938,6.291
			c2.84,0,4.971-2.672,4.971-6.357c0-2.772-1.387-6.256-4.902-6.256C254.57,18.452,253.049,21.698,253.049,24.775z"/>
		<path fill="#CB2128" d="M268.229,31.167c0-1.219,0.846-2.131,2.028-2.131s1.995,0.879,1.995,2.131
			c0,1.217-0.812,2.131-2.062,2.131C269.039,33.298,268.229,32.384,268.229,31.167z"/>
		<path fill="#CB2128" d="M289.631,28.429c0,1.725,0.033,3.211,0.135,4.496h-2.637l-0.17-2.67h-0.066
			c-0.744,1.316-2.502,3.043-5.41,3.043c-2.569,0-5.646-1.455-5.646-7.17v-9.569h2.977v9.028c0,3.111,0.979,5.242,3.65,5.242
			c1.995,0,3.383-1.387,3.924-2.738c0.168-0.406,0.271-0.947,0.271-1.523V16.559h2.976v11.87H289.631z"/>
		<path fill="#CB2128" d="M297.507,24.065h0.067c0.406-0.573,0.947-1.286,1.42-1.858l4.836-5.646h3.551l-6.29,6.728l7.202,9.638
			h-3.65l-5.613-7.844l-1.521,1.689v6.154h-2.941V8.917h2.941L297.507,24.065L297.507,24.065z"/>
	</g>
</g>
</svg>
