<svg xmlns="http://www.w3.org/2000/svg" viewBox="0 0 50 50"><defs><style>.cls-1{fill:#fff;}.cls-2{fill:#bd5419;}</style></defs><title>Asset 68</title><g id="Layer_2" data-name="Layer 2"><g id="Layer_1-2" data-name="Layer 1"><rect class="cls-1" width="50" height="50"/><path class="cls-2" d="M49.67,21.11a22.89,22.89,0,0,0-8.6-14.27A22.61,22.61,0,0,0,27.31,2,2.55,2.55,0,0,0,26,2.41a2.59,2.59,0,0,0-.87,2.89,2.1,2.1,0,0,0,2.11,1.5c.17,0,.36,0,.53,0a27.65,27.65,0,0,1,2.9.33A18.32,18.32,0,0,1,45.24,23.39a17.28,17.28,0,0,1-4.15,13.25C36.62,41.89,30.86,44.16,24,43c-7.19-1.22-12-5.46-14.41-12.37a13.84,13.84,0,0,1-.75-4h4.2L6.55,15.74C4.35,19.39,2.21,23,0,26.64H4c0,.52.09,1,.15,1.45s.14,1,.23,1.44a22.49,22.49,0,0,0,8.83,14A21,21,0,0,0,26.35,48c1.12,0,2.25.09,3.36,0a21.33,21.33,0,0,0,8.15-2.59,22.9,22.9,0,0,0,11.74-16c.17-.86.27-1.73.4-2.59V23.41C49.89,22.64,49.81,21.87,49.67,21.11Z"/><path class="cls-2" d="M22.36,34.3c2.13-2.13,4.25-4.26,6.39-6.38a2.64,2.64,0,0,0,.81-2c0-2.07,0-4.13,0-6.2V17c0-1.25,0-2.5,0-3.76a2.09,2.09,0,0,0-1.4-2.07,2.4,2.4,0,0,0-2.59.6A2.28,2.28,0,0,0,25,13.39q0,5.71,0,11.41a1.14,1.14,0,0,1-.38.89c-1.82,1.8-3.64,3.62-5.45,5.44a2.26,2.26,0,0,0,0,3.3A2.22,2.22,0,0,0,22.36,34.3Z"/><path class="cls-2" d="M25.62,38.11a1.45,1.45,0,1,0,2.9,0,1.45,1.45,0,0,0-2.9,0Z"/><path class="cls-2" d="M36.63,14.85a1.45,1.45,0,1,0,0,2.9,1.47,1.47,0,0,0,1.45-1.46A1.5,1.5,0,0,0,36.63,14.85Z"/><path class="cls-2" d="M35.17,33.58a1.47,1.47,0,0,0,1.42,1.5,1.5,1.5,0,0,0,1.48-1.45,1.47,1.47,0,0,0-1.41-1.46A1.45,1.45,0,0,0,35.17,33.58Z"/><path class="cls-2" d="M41.28,25.12a1.47,1.47,0,0,0-1.43-1.44,1.41,1.41,0,0,0-1.46,1.42,1.42,1.42,0,0,0,1.42,1.47A1.49,1.49,0,0,0,41.28,25.12Z"/></g></g></svg>