<svg xmlns="http://www.w3.org/2000/svg" viewBox="0 0 50 50"><defs><style>.cls-1{fill:#bd5419;}.cls-2{fill:none;}.cls-3{fill:#fff;}</style></defs><title>Asset 73</title><g id="Layer_2" data-name="Layer 2"><g id="Layer_1-2" data-name="Layer 1"><circle class="cls-1" cx="25" cy="25" r="25"/><rect class="cls-2" width="50" height="50"/><path class="cls-3" d="M45.72,38.93,43.17,25.51c-.37-1.93-.76-3.85-1.14-5.78-.24-1.22-.46-2.44-.7-3.66-.08-.4-.3-.71-.75-.61s-.55.43-.48.84c0,.19.07.36.11.58H36.84v-.65c0-2.08,0-4.15,0-6.22A3.37,3.37,0,0,0,35,6.83c-.37-.2-.78-.33-1,.15s0,.74.44.94a1.74,1.74,0,0,1,1,1.29c.11.86.1,1.73.14,2.63H28.13a2.2,2.2,0,0,1-.27,0c0-.64,0-1.27,0-1.9a2,2,0,0,1,1.13-2c.37-.2.57-.48.36-.88s-.6-.4-1-.19a3.23,3.23,0,0,0-1.75,2.84c0,.71,0,1.42,0,2.13a4.32,4.32,0,0,0-3.46,1.75C21.42,16,19.72,18.37,18,20.76c-1.23,1.68-2.5,3.34-3.73,5-1.71,2.33-3.47,4.63-5.07,7a2.89,2.89,0,0,1-2.93,1.51,2.77,2.77,0,0,0-3,2.8,2.91,2.91,0,0,0,3,2.89c.94,0,1.88,0,2.82,0a4.1,4.1,0,0,0,3.37-1.69l14-18.95c.32-.44.65-.86,1.08-1.43,0,.33,0,.48,0,.63,0,1.43-.07,2.87-.06,4.31s.05,3,.06,4.52c0,.43.15.75.59.75s.64-.34.64-.79c0-1.12,0-2.24,0-3.37,0-2.22,0-4.43,0-6.65v-.62h6.84V27.46c0,.42.21.73.6.68.23,0,.47-.36.63-.6s0-.37,0-.56c0-.79,0-1.59,0-2.38.16.06.22.13.23.22.24,1.13.48,2.27.71,3.41Q38.92,33.77,40,39.3c.09.44.26.8.78.68s.52-.47.43-.9c-.21-1-.39-1.94-.61-3,1,0,1.86,0,2.76,0,.41,0,.56.11.62.53.15,1,.36,1.92.56,2.87a.58.58,0,0,0,.71.51.58.58,0,0,0,.48-.73C45.76,39.16,45.74,39.05,45.72,38.93ZM27.52,15.64a1.07,1.07,0,0,1-.23.51l-5.83,7.91-9.9,13.41A3,3,0,0,1,9,38.79H6.25a1.67,1.67,0,0,1-1.76-1.66,1.64,1.64,0,0,1,1.74-1.6,17.18,17.18,0,0,0,1.9,0A1.33,1.33,0,0,0,9,35.08c2.53-3.45,5-6.92,7.55-10.38s5.1-7,7.67-10.46a3.24,3.24,0,0,1,3.33-1.11C27.53,14,27.54,14.82,27.52,15.64Zm8-.25H28.77V13.11h6.79Zm2,6c-.22-1.07-.44-2.12-.67-3.25,1.16,0,2.26,0,3.36,0,.1,0,.25.18.28.29.19.95.35,1.91.54,2.95Zm.94,4.29c-.21-.9-.41-1.81-.61-2.73,0-.06,0-.14.08-.28h3.4c.19,1,.39,2.09.6,3.22H38.73A.31.31,0,0,1,38.5,25.68Zm.91,4.43c-.22-1-.41-1.93-.63-3h3.14a.43.43,0,0,1,.31.24c.2,1,.37,1.94.57,3H39.7A.42.42,0,0,1,39.41,30.11Zm1.2,4.75c-.1,0-.26-.17-.28-.28-.21-.94-.4-1.9-.6-2.92h3.32l.62,3.21C42.62,34.87,41.62,34.88,40.61,34.86Z"/><path class="cls-3" d="M36.84,38.76v-5c0-.78-.18-1.1-.64-1.06-.68,0-.61.56-.61,1v4.43c0,.2,0,.4,0,.59H28.75v-5.1c0-.7-.18-1-.63-.95-.61,0-.6.47-.6.91,0,1.51,0,3,0,4.54v.64H26.35a.59.59,0,0,0-.64.6.61.61,0,0,0,.62.63H36.8c.44,0,.85-.06.89-.59S37.34,38.79,36.84,38.76Z"/><path class="cls-3" d="M31.24,7.68c.09.06.26,0,.39,0H32a.58.58,0,0,0,.65-.58.57.57,0,0,0-.58-.64,2.13,2.13,0,0,0-.91,0c-.23.1-.51.41-.5.62S31,7.51,31.24,7.68Z"/><path class="cls-3" d="M35.6,30.82c.16.22.36.56.55.57a.84.84,0,0,0,.63-.47,1.74,1.74,0,0,0,0-1.06.78.78,0,0,0-.62-.42c-.2,0-.4.32-.54.54s0,.29,0,.44S35.54,30.73,35.6,30.82Z"/><path class="cls-3" d="M28.75,30.1c0-.42-.22-.72-.67-.69s-.57.33-.56.73a2.25,2.25,0,0,0,0,.74c.1.22.34.5.54.51s.45-.25.61-.44.05-.33.05-.37C28.75,30.33,28.76,30.21,28.75,30.1Z"/></g></g></svg>