<svg xmlns="http://www.w3.org/2000/svg" viewBox="0 0 50 50"><defs><style>.cls-1{fill:#fff;}.cls-2{fill:#bd5419;}</style></defs><title>Asset 62</title><g id="Layer_2" data-name="Layer 2"><g id="Layer_1-2" data-name="Layer 1"><rect class="cls-1" width="50" height="50"/><circle class="cls-2" cx="25" cy="23.54" r="5.86"/><path class="cls-2" d="M48.78,20.63,44.88,20a20.25,20.25,0,0,0-2.28-5.51l2.24-3.13a1.47,1.47,0,0,0-.16-1.89L40.54,5.32a1.47,1.47,0,0,0-1.89-.16L35.52,7.4A20.25,20.25,0,0,0,30,5.12l-.64-3.9A1.45,1.45,0,0,0,27.93,0H22.07a1.45,1.45,0,0,0-1.44,1.22L20,5.12A20.25,20.25,0,0,0,14.48,7.4L11.35,5.16a1.47,1.47,0,0,0-1.89.16L5.32,9.46a1.47,1.47,0,0,0-.16,1.89L7.4,14.48A20.25,20.25,0,0,0,5.12,20l-3.9.64A1.45,1.45,0,0,0,0,22.07v5.86a1.45,1.45,0,0,0,1.22,1.44l3.9.64A20.25,20.25,0,0,0,7.4,35.52L5.16,38.65a1.47,1.47,0,0,0,.16,1.89l4.14,4.14a1.49,1.49,0,0,0,1.89.16l3.13-2.24A20.25,20.25,0,0,0,20,44.88l.64,3.9A1.45,1.45,0,0,0,22.07,50h5.86a1.45,1.45,0,0,0,1.44-1.22l.64-3.9a20.25,20.25,0,0,0,5.51-2.28l3.13,2.24a1.49,1.49,0,0,0,1.89-.16l4.14-4.14a1.47,1.47,0,0,0,.16-1.89L42.6,35.52A20.25,20.25,0,0,0,44.88,30l3.9-.64A1.45,1.45,0,0,0,50,27.93V22.07A1.45,1.45,0,0,0,48.78,20.63ZM25,41.11A16.11,16.11,0,1,1,41.11,25,16.13,16.13,0,0,1,25,41.11Z"/><path class="cls-2" d="M31.77,29.08a8.69,8.69,0,0,1-13.54,0,10.28,10.28,0,0,0-3,4.7,13,13,0,0,0,19.52,0A10.28,10.28,0,0,0,31.77,29.08Z"/></g></g></svg>