<svg xmlns="http://www.w3.org/2000/svg" viewBox="0 0 50 50"><defs><style>.cls-1{fill:#fff;}.cls-2{fill:#bd5419;}</style></defs><title>Asset 64</title><g id="Layer_2" data-name="Layer 2"><g id="Layer_1-2" data-name="Layer 1"><rect class="cls-1" width="50" height="50"/><path class="cls-2" d="M5.38,40.31V38l-.45.33c-1.19.93-2.38,1.88-3.6,2.79-.6.45-1,.44-1.23.07S0,40.63.64,40.16C2.29,38.89,4,37.67,5.5,36.27A24,24,0,0,0,8,33.14L24.08,12.46l.15-.21-1.63-2.1-.45-.59c-.28-.37-.26-.73.05-.94a.61.61,0,0,1,.89.2l1.66,2.12.26.32,1.63-2.09.3-.39a.58.58,0,0,1,.9-.13.59.59,0,0,1,0,.88l-1.71,2.2-.4.53,3.49,4.49q7.48,9.63,15,19.24a11.39,11.39,0,0,0,2,1.81c1.1.87,2.23,1.7,3.36,2.54.32.24.47.52.24.88a.58.58,0,0,1-.9.13c-1.34-1-2.67-2-4-3.06L44.63,38v2.3h1.85c.62,0,.87.17.86.6s-.24.58-.84.58H3.87c-.46,0-.76-.24-.72-.61s.29-.58.7-.57Zm38,0c0-.84,0-1.61,0-2.37a1.75,1.75,0,0,0-.73-1.61Q35,29.64,27.42,22.9c-.81-.71-1.6-1.43-2.4-2.16l-.34.28L6.87,36.74a.62.62,0,0,0-.24.35c0,1.06,0,2.11,0,3.22,1,0,2,0,3,0A1.78,1.78,0,0,0,10.78,40a37.31,37.31,0,0,0,7-6.46,51,51,0,0,0,6.62-10A.89.89,0,0,1,25,23.1c.18,0,.47.22.57.42a51.75,51.75,0,0,0,4.5,7.27,39.33,39.33,0,0,0,9.32,9.29,1,1,0,0,0,.48.22C41,40.32,42.19,40.31,43.41,40.31Z"/><path class="cls-2" d="M35.69,14.63A4.39,4.39,0,1,1,40.11,19,4.41,4.41,0,0,1,35.69,14.63Z"/></g></g></svg>